<?xml version="1.0" standalone="no"?>
<!DOCTYPE svg PUBLIC "-//W3C//DTD SVG 20010904//EN"
 "http://www.w3.org/TR/2001/REC-SVG-20010904/DTD/svg10.dtd">
<svg version="1.0" xmlns="http://www.w3.org/2000/svg"
 width="300.000000pt" height="300.000000pt" viewBox="0 0 300.000000 300.000000"
 preserveAspectRatio="xMidYMid meet">
<metadata>
Created by potrace 1.11, written by Peter Selinger 2001-2013
</metadata>
<g transform="translate(0.000000,300.000000) scale(0.100000,-0.100000)"
fill="#000000" stroke="none">
<path d="M339 2912 c0 -4 -2 -16 -4 -27 -3 -11 -7 -38 -9 -60 -3 -22 -12 -76
-21 -120 -8 -44 -18 -100 -21 -125 -7 -58 -16 -110 -31 -185 -2 -11 -6 -38 -9
-60 -7 -52 -37 -233 -48 -290 -2 -11 -7 -42 -10 -68 -4 -27 -9 -57 -11 -67 -2
-9 -6 -35 -9 -56 -4 -22 -23 -136 -42 -254 -20 -118 -37 -224 -39 -235 -4 -30
-15 -98 -19 -120 -2 -11 -7 -40 -11 -65 -4 -25 -9 -54 -11 -65 -21 -105 -23
-276 -4 -367 42 -212 152 -377 321 -484 141 -88 329 -153 524 -179 28 -4 64
-9 80 -11 52 -9 387 -11 465 -3 478 46 838 223 1061 522 78 105 165 285 184
380 3 10 6 26 9 35 3 9 8 31 10 47 3 17 8 41 11 55 3 14 7 43 10 65 3 22 7 49
9 60 2 11 7 38 10 60 3 22 8 51 11 65 8 36 13 68 20 124 3 27 8 52 10 55 1 3
6 31 10 61 3 30 8 62 11 71 3 10 6 30 9 45 3 25 11 75 31 199 2 17 9 57 15 90
6 33 12 71 14 85 3 19 71 437 89 545 2 11 9 54 16 95 6 41 16 95 21 119 6 24
8 46 5 48 -10 10 -1016 11 -1022 2 -3 -5 -7 -22 -10 -37 -14 -95 -15 -103 -34
-201 -5 -29 -7 -57 -4 -62 3 -5 0 -9 -6 -9 -6 0 -9 -4 -6 -8 2 -4 -1 -39 -9
-77 -7 -39 -15 -86 -18 -105 -3 -19 -12 -78 -21 -130 -10 -52 -19 -106 -21
-120 -6 -40 -36 -212 -41 -240 -2 -14 -7 -41 -10 -60 -2 -19 -9 -57 -14 -85
-5 -27 -12 -66 -15 -85 -3 -19 -10 -60 -15 -90 -5 -30 -12 -73 -15 -95 -6 -38
-9 -59 -20 -115 -3 -14 -7 -38 -10 -55 -2 -16 -7 -41 -9 -55 -3 -14 -8 -41
-10 -60 -35 -247 -94 -383 -192 -445 -66 -42 -110 -53 -206 -51 -113 2 -169
29 -207 101 -22 43 -26 62 -26 140 1 50 4 113 9 140 5 28 10 59 12 70 1 11 5
38 9 60 3 22 8 54 12 70 4 17 8 39 9 50 1 11 4 34 8 50 7 37 33 186 41 240 3
22 15 92 26 155 11 63 22 126 24 140 2 14 18 108 35 210 17 102 33 199 36 215
2 17 9 53 14 80 5 28 11 66 14 85 3 19 10 60 16 90 6 30 13 73 15 95 3 22 12
76 20 119 8 44 13 81 10 84 -7 8 -1025 11 -1026 4z"/>
</g>
</svg>
